<svg width="1440" height="1024" viewBox="0 0 1440 1024" fill="none" xmlns="http://www.w3.org/2000/svg">
<rect width="1440" height="1024" fill="#FFFDF7"/>
<mask id="mask0" mask-type="alpha" maskUnits="userSpaceOnUse" x="0" y="0" width="1440" height="1024">
<rect width="1440" height="1024" fill="#FFFDF6"/>
</mask>
<g mask="url(#mask0)">
<g filter="url(#filter0_f)">
<path fill-rule="evenodd" clip-rule="evenodd" d="M1314.44 591.744C1373.62 570.813 1321.16 744.792 1380.04 766.573C1440.13 788.802 1488.43 657.838 1549.06 678.537C1594.8 694.152 1537.86 774.092 1542.88 822.161C1546.19 853.862 1560.22 882.901 1573.42 911.913C1591.74 952.175 1639.28 983.354 1636.3 1027.49C1633.55 1068.07 1599.91 1118.84 1559.28 1120.8C1492.88 1124.02 1443.04 1022.69 1378.85 1039.94C1334.66 1051.82 1383.42 1135.87 1359.06 1174.61C1338.7 1206.99 1296.19 1218.8 1259.52 1229.68C1215.37 1242.78 1156.5 1276.51 1123.34 1244.54C1085.41 1207.98 1142.09 1131.97 1112.76 1088.21C1085.74 1047.9 974.269 1079.16 980.23 1031C988.073 967.645 1105.13 976.259 1133.69 919.162C1150.08 886.375 1090.82 857.814 1084.93 821.631C1078.24 780.463 1056.19 701.533 1097.77 698.236C1164.6 692.938 1204.48 836.952 1264.65 807.382C1331.42 774.562 1244.29 616.551 1314.44 591.744Z" fill="#FE915C"/>
</g>
<g filter="url(#filter1_f)">
<path fill-rule="evenodd" clip-rule="evenodd" d="M1347.93 -195.387C1386.37 -191.893 1420.54 -235.386 1458.25 -227.165C1494.49 -219.266 1512.4 -177.846 1540.33 -153.446C1568.75 -128.626 1614.78 -116.845 1625.85 -80.7786C1637.56 -42.6889 1593.38 -5.13625 1598.05 34.4353C1602.88 75.348 1649.12 103.185 1652.42 144.249C1655.7 184.961 1648.31 234.951 1616.22 260.218C1580.96 287.983 1520.49 251.198 1483.79 277.031C1443.88 305.121 1460.1 392.36 1412.59 403.543C1366.5 414.392 1342.48 338.793 1298.77 320.581C1265.18 306.583 1223.4 327.615 1190.92 311.182C1158.52 294.783 1136.73 262.04 1119.7 229.962C1103.41 199.268 1103.04 163.403 1094.58 129.696C1086.33 96.8014 1069.51 65.7694 1070.01 31.8597C1070.52 -2.66096 1088.93 -33.6395 1097.51 -67.0827C1107.71 -106.892 1101.62 -152.798 1125.86 -185.99C1149.8 -218.79 1188.98 -246.234 1229.55 -247.951C1273.06 -249.792 1304.56 -199.328 1347.93 -195.387Z" fill="#CCE7FE"/>
</g>
<g filter="url(#filter2_f)">
<path fill-rule="evenodd" clip-rule="evenodd" d="M88.389 624.65C130.826 628.728 165.873 657.645 204.154 676.411C240.184 694.073 280.75 704.712 309.277 732.932C337.608 760.959 351.879 799.698 366.322 836.84C380.125 872.337 382.886 910.208 392.536 947.051C403.583 989.226 435.69 1028.93 427.871 1071.82C420.183 1114 378.947 1141.02 351.215 1173.71C324.494 1205.21 304.436 1246.8 266.19 1262.39C227.353 1278.23 183.365 1257.12 141.477 1259.23C104.545 1261.09 69.3365 1270.87 32.506 1274.18C-12.2371 1278.2 -61.1089 1301.79 -100.942 1281.01C-139.874 1260.71 -143.671 1205.45 -168.61 1169.31C-192.614 1134.53 -228.824 1108.95 -246.256 1070.45C-264.428 1030.31 -282.765 984.492 -271.588 941.877C-260.138 898.218 -208.304 877.806 -185.514 838.847C-164.34 802.65 -169.049 754.345 -142.771 721.663C-116.121 688.518 -75.5447 669.761 -36.3281 653.302C3.34158 636.654 45.5646 620.535 88.389 624.65Z" fill="#4FAAFB"/>
</g>
<g filter="url(#filter3_f)">
<path fill-rule="evenodd" clip-rule="evenodd" d="M79.8404 -349.839C149.444 -356.052 78.1347 -181.012 141.385 -151.301C199.2 -124.143 250.783 -271.143 307.965 -242.678C356.123 -218.705 277.06 -140.549 270.151 -87.2003C266.835 -61.5933 261.465 -30.6776 277.937 -10.7929C319.534 39.4232 410.704 45.8432 431.542 107.631C445.736 149.719 397.16 204.338 353.933 214.548C294.575 228.569 239.395 173.997 178.768 167.337C155.906 164.826 131.717 173.981 113.597 188.146C79.2981 214.96 71.2065 280.506 27.9302 285.258C-7.69952 289.171 -28.0407 238.055 -42.5914 205.298C-56.1055 174.874 -30.4658 132.556 -51.3976 106.67C-73.3671 79.5001 -119.417 90.3376 -149.676 72.8665C-197.499 45.2541 -278.143 29.2826 -280.944 -25.8683C-283.484 -75.8672 -198.401 -80.4528 -159.035 -111.382C-133.55 -131.406 -120.481 -171.915 -88.4851 -177.081C-49.7471 -183.336 -4.97324 -112.575 22.4106 -140.68C73.299 -192.908 7.2085 -343.355 79.8404 -349.839Z" fill="#FECFB8"/>
</g>
</g>
<defs>
<filter id="filter0_f" x="964" y="574" width="688.43" height="699.906" filterUnits="userSpaceOnUse" color-interpolation-filters="sRGB">
<feFlood flood-opacity="0" result="BackgroundImageFix"/>
<feBlend mode="normal" in="SourceGraphic" in2="BackgroundImageFix" result="shape"/>
<feGaussianBlur stdDeviation="8" result="effect1_foregroundBlur"/>
</filter>
<filter id="filter1_f" x="1054" y="-264" width="615.135" height="684.603" filterUnits="userSpaceOnUse" color-interpolation-filters="sRGB">
<feFlood flood-opacity="0" result="BackgroundImageFix"/>
<feBlend mode="normal" in="SourceGraphic" in2="BackgroundImageFix" result="shape"/>
<feGaussianBlur stdDeviation="8" result="effect1_foregroundBlur"/>
</filter>
<filter id="filter2_f" x="-291" y="608" width="736.084" height="697.458" filterUnits="userSpaceOnUse" color-interpolation-filters="sRGB">
<feFlood flood-opacity="0" result="BackgroundImageFix"/>
<feBlend mode="normal" in="SourceGraphic" in2="BackgroundImageFix" result="shape"/>
<feGaussianBlur stdDeviation="8" result="effect1_foregroundBlur"/>
</filter>
<filter id="filter3_f" x="-297" y="-366" width="747.058" height="667.47" filterUnits="userSpaceOnUse" color-interpolation-filters="sRGB">
<feFlood flood-opacity="0" result="BackgroundImageFix"/>
<feBlend mode="normal" in="SourceGraphic" in2="BackgroundImageFix" result="shape"/>
<feGaussianBlur stdDeviation="8" result="effect1_foregroundBlur"/>
</filter>
</defs>
</svg>
